<svg width="249" height="71" viewBox="0 0 249 71" fill="none" xmlns="http://www.w3.org/2000/svg">
<path d="M21.896 46V31H17.264V28.12H29.744V31H25.184V46H21.896ZM31.7358 46V28.12H38.3838C39.5998 28.12 40.6718 28.344 41.5998 28.792C42.5438 29.224 43.2798 29.864 43.8078 30.712C44.3358 31.544 44.5998 32.56 44.5998 33.76C44.5998 34.992 44.3038 36.04 43.7118 36.904C43.1358 37.768 42.3518 38.408 41.3598 38.824L45.4638 46H41.7678L37.3758 38.152L39.4878 39.4H34.9998V46H31.7358ZM34.9998 36.52H38.4318C39.0238 36.52 39.5358 36.408 39.9678 36.184C40.3998 35.944 40.7358 35.616 40.9758 35.2C41.2158 34.784 41.3358 34.304 41.3358 33.76C41.3358 33.2 41.2158 32.72 40.9758 32.32C40.7358 31.904 40.3998 31.584 39.9678 31.36C39.5358 31.12 39.0238 31 38.4318 31H34.9998V36.52ZM47.603 46V28.12H59.483V31H50.867V35.584H59.003V38.464H50.867V43.12H59.483V46H47.603ZM61.8764 46V28.12H65.1404V37.432L64.2524 37.12L71.8604 28.12H75.9644L68.8364 36.568L69.0284 34.264L76.1804 46H72.3404L67.5404 38.128L65.1404 40.984V46H61.8764Z" fill="#180202"/>
<path d="M82.4311 46V28.12H85.5511L92.2471 37.216H90.7591L97.3111 28.12H100.431V46H97.1431V31.84L98.4151 32.152L91.6231 41.2H91.2391L84.6151 32.152L85.6951 31.84V46H82.4311ZM102.389 46L108.557 28.12H112.781L118.949 46H115.397L114.125 42.16H107.213L105.917 46H102.389ZM108.149 39.28H113.189L110.213 30.376H111.125L108.149 39.28ZM122.912 46V31H118.28V28.12H130.76V31H126.2V46H122.912ZM132.751 46V28.12H144.631V31H136.015V35.584H144.151V38.464H136.015V43.12H144.631V46H132.751ZM148.249 46V42.64H151.417V46H148.249Z" fill="#9B8975"/>
<g filter="url(#filter0_d_1_2)">
<path d="M182.43 14.4737C184.086 14.7778 187.34 15.6292 187.106 16.6023C186.814 17.8187 183.891 18.731 186.229 22.076C188.567 25.4211 188.859 22.3801 191.197 26.3333C193.535 30.2865 181.553 36.3684 179.215 35.4561C177.344 34.7263 176.292 36.7739 176 37.8889L178.338 39.4094C180.774 40.1189 185.528 42.0854 185.06 44.2749C184.475 47.0117 181.553 48.2281 185.06 49.4444C188.567 50.6608 193.828 54.614 194.412 57.655C194.88 60.0877 198.114 60.8986 199.673 61M207.564 9C205.128 9.20273 199.673 10.0947 197.335 12.0409C194.412 14.4737 193.828 22.076 195.581 23.5965C197.335 25.117 197.043 26.0292 200.257 26.9415C203.472 27.8538 206.103 32.7193 207.564 33.0234C208.733 33.2667 213.896 34.7466 216.332 35.4561L225.099 30.5906M221.592 48.5322C219.352 47.7212 214.929 45.917 215.163 45.1871C215.455 44.2749 211.948 40.9298 215.163 39.4094C218.377 37.8889 220.715 37.8889 223.638 35.4561C225.976 33.5099 226.074 32.922 225.976 32.1111" stroke="#140F02" stroke-width="4" stroke-linecap="round"/>
</g>
<path d="M226.897 35.5C226.897 51.2265 214.051 64 198.175 64C182.298 64 169.453 51.2265 169.453 35.5C169.453 19.7735 182.298 7 198.175 7C214.051 7 226.897 19.7735 226.897 35.5Z" stroke="black" stroke-width="4"/>
<path d="M168.76 32.9043C159.609 41.3404 150.896 62.1064 190.442 52.6968" stroke="black" stroke-width="4" stroke-linecap="round"/>
<path d="M217.482 29.1242L203.364 20.5318C203.261 20.4689 203.142 20.4356 203.021 20.4356L200.777 20.4356C200.163 20.4356 199.885 21.1963 200.355 21.5878L212.766 31.9214C212.958 32.0816 213.225 32.119 213.455 32.018L217.406 30.2768C217.89 30.0636 217.934 29.3989 217.482 29.1242Z" fill="#9B8975" stroke="black" stroke-width="0.727583"/>
<path d="M204.942 38.2271L198.163 34.6752C198.012 34.5963 197.837 34.5785 197.673 34.6256L192.607 36.0858C192.076 36.239 191.961 36.936 192.417 37.2488L199.572 42.167C199.786 42.3136 200.066 42.322 200.287 42.1884L204.977 39.3618C205.413 39.0988 205.394 38.4637 204.942 38.2271Z" fill="#9B8975" stroke="black" stroke-width="0.727583"/>
<path d="M240.805 20.3559L210.108 42.5663L202.419 44.1646L199.563 42.139L236.914 15.0616C238.362 14.0119 240.391 14.3066 241.48 15.7247C242.602 17.1859 242.298 19.2757 240.805 20.3559Z" fill="#9B8975" stroke="black" stroke-width="0.727583"/>
<defs>
<filter id="filter0_d_1_2" x="169.699" y="6.99989" width="62.3007" height="64.0002" filterUnits="userSpaceOnUse" color-interpolation-filters="sRGB">
<feFlood flood-opacity="0" result="BackgroundImageFix"/>
<feColorMatrix in="SourceAlpha" type="matrix" values="0 0 0 0 0 0 0 0 0 0 0 0 0 0 0 0 0 0 127 0" result="hardAlpha"/>
<feOffset dy="4"/>
<feGaussianBlur stdDeviation="2"/>
<feComposite in2="hardAlpha" operator="out"/>
<feColorMatrix type="matrix" values="0 0 0 0 0 0 0 0 0 0 0 0 0 0 0 0 0 0 0.25 0"/>
<feBlend mode="normal" in2="BackgroundImageFix" result="effect1_dropShadow_1_2"/>
<feBlend mode="normal" in="SourceGraphic" in2="effect1_dropShadow_1_2" result="shape"/>
</filter>
</defs>
</svg>